<?xml version="1.0" encoding="utf-8"?>
<svg xmlns="http://www.w3.org/2000/svg">
<symbol id="check" viewBox="0 0 50 50">
<path d="M45.293 19.562L45.992 12.879L39.853 10.148L37.123 4.00901L30.44 4.70701L25 0.765015L19.561 4.70701L12.879 4.00901L10.148 10.147L4.009 12.879L4.707 19.561L0.764999 25L4.707 30.438L4.008 37.121L10.147 39.852L12.877 45.991L19.56 45.293L25 49.235L30.439 45.293L37.121 45.991L39.852 39.853L45.991 37.121L45.293 30.439L49.235 25L45.293 19.562ZM43.851 35.885L38.337 38.338L35.884 43.851L29.885 43.225L25 46.765L20.115 43.225L14.115 43.851L11.662 38.337L6.149 35.885L6.775 29.886L3.235 25L6.776 20.115L6.15 14.115L11.664 11.662L14.117 6.14901L20.116 6.77501L25 3.23501L29.885 6.77501L35.885 6.14901L38.338 11.663L43.851 14.115L43.225 20.114L46.765 25L43.224 29.885L43.851 35.885Z"/>
<path d="M21 31.586L14.707 25.293L13.293 26.707L21 34.414L38.707 16.707L37.293 15.293L21 31.586Z"/>

</symbol>
<symbol id="circle" viewBox="0 0 50 50">
<circle cx="25" cy="25" r="25"/>
<circle cx="25" cy="25" r="10" fill="#09142e"/>

</symbol>
<symbol id="facebook" viewBox="0 0 19 32">
<path d="M12 32V18H18L19 12H12V9C12 7 13.002 6 15 6H18V0C17 0 14.76 0 13 0C8 0 6 3 6 8V12H0V18H6V32H12Z"/>

</symbol>
<symbol id="github" viewBox="0 0 50 50">
<g clip-path="url(#clip0)">
<path fill-rule="evenodd" clip-rule="evenodd" d="M47.5253 2.74411C48.6515 4.23223 49.159 6.69899 49.4089 9.69785C49.7394 14.173 49.8722 19.5432 49.9991 25.0925C49.8348 30.7449 49.7679 36.4456 49.4089 40.4871C49.1256 43.5892 48.5236 45.6665 47.5184 46.9264C46.2397 48.1844 43.7866 49.2466 40.2888 49.4984C36.0347 49.8613 30.7861 49.8574 24.9956 50C18.5588 49.8898 14.1936 49.9371 9.61387 49.5004C6.04138 49.2525 3.70432 48.203 2.26628 46.9362C1.20102 45.5061 0.889219 43.9856 0.594135 40.4212C0.22528 36.305 0.14364 30.7272 0.00396729 25.1229C0.213477 19.5482 0.226264 13.9291 0.597086 9.72932C0.84594 6.41573 1.2384 4.18797 2.24464 2.77165C3.65612 1.56877 6.06401 0.970765 9.65616 0.675699C14.5742 0.100319 19.6949 -0.0127898 24.9887 -3.60417e-06C30.437 0.00884839 35.6668 0.16425 40.3331 0.62357C43.4806 0.87536 46.0853 1.4173 47.5203 2.74411H47.5253Z" fill="#24292E"/>
<path d="M24.3936 9.93882C20.8944 9.93993 17.5097 11.1858 14.845 13.4537C12.1802 15.7216 10.4093 18.8634 9.84899 22.3173C9.28865 25.7711 9.97544 29.3117 11.7865 32.3056C13.5976 35.2995 16.4148 37.5515 19.7342 38.6587C20.4709 38.7954 20.7414 38.339 20.7414 37.9495C20.7414 37.5984 20.7276 36.4368 20.7217 35.2054C16.6211 36.0975 15.7545 33.4674 15.7545 33.4674C15.0837 31.7639 14.1178 31.3115 14.1178 31.3115C12.7801 30.3968 14.2161 30.4155 14.2161 30.4155C15.6916 30.5197 16.4784 31.9341 16.4784 31.9341C17.7925 34.1864 19.926 33.5353 20.767 33.1586C20.8988 32.2065 21.2814 31.5564 21.7024 31.1915C18.4289 30.8187 14.9873 29.5549 14.9873 23.9132C14.9668 22.4485 15.5106 21.0321 16.506 19.9573C16.3525 19.5855 15.8489 18.0886 16.6486 16.0575C16.6486 16.0575 17.886 15.6641 20.7021 17.5683C23.1167 16.9076 25.6645 16.9076 28.0792 17.5683C30.9021 15.6562 32.1346 16.0497 32.1346 16.0497C32.9372 18.0797 32.4297 19.5787 32.2792 19.9495C33.275 21.0238 33.8183 22.4407 33.7959 23.9053C33.7959 29.5657 30.3484 30.8118 27.0661 31.1767C27.5943 31.6341 28.0654 32.5311 28.0654 33.9061C28.0654 35.8732 28.0487 37.4646 28.0487 37.9505C28.0487 38.3439 28.3143 38.8023 29.0608 38.6577C32.3809 37.5503 35.1985 35.2976 37.0095 32.3029C38.8205 29.3082 39.5068 25.7668 38.9454 22.3124C38.384 18.858 36.6117 15.7161 33.9456 13.4489C31.2794 11.1817 27.8935 9.93708 24.3936 9.93784V9.93882Z" fill="white"/>
<path d="M15.2382 31.098C15.2057 31.1718 15.0906 31.1964 14.9854 31.1433C14.8801 31.0902 14.8182 30.9958 14.8536 30.922C14.889 30.8482 15.0001 30.8236 15.1074 30.8758C15.2146 30.9279 15.2756 31.0243 15.2382 31.098V31.098Z" fill="white"/>
<path d="M15.8352 31.7629C15.7654 31.8278 15.6277 31.7973 15.5342 31.6951C15.4408 31.5928 15.4201 31.4551 15.4909 31.3892C15.5618 31.3233 15.6965 31.3547 15.7929 31.457C15.8893 31.5593 15.908 31.697 15.8352 31.7629Z" fill="white"/>
<path d="M16.4165 32.6117C16.326 32.6747 16.1785 32.6117 16.087 32.4849C15.9955 32.358 15.9965 32.1967 16.087 32.1337C16.1775 32.0708 16.324 32.1278 16.4165 32.2577C16.5089 32.3875 16.507 32.5527 16.4165 32.6127V32.6117Z" fill="white"/>
<path d="M17.2123 33.432C17.1316 33.5215 16.9595 33.4969 16.8336 33.376C16.7077 33.255 16.6693 33.0888 16.75 32.9993C16.8306 32.9097 17.0047 32.9353 17.1316 33.0553C17.2585 33.1753 17.2988 33.3435 17.2123 33.432Z" fill="white"/>
<path d="M18.3119 33.9081C18.2765 34.0231 18.1152 34.0762 17.9441 34.0271C17.7729 33.9779 17.6686 33.8412 17.7021 33.7251C17.7355 33.6091 17.8988 33.554 18.0709 33.6071C18.2431 33.6602 18.3464 33.792 18.3119 33.909V33.9081Z" fill="white"/>
<path d="M19.5168 33.9966C19.5168 34.1185 19.3791 34.2189 19.204 34.2208C19.029 34.2228 18.8853 34.1225 18.8834 34.0064C18.8814 33.8904 19.0221 33.7841 19.1981 33.7812C19.3742 33.7782 19.5168 33.8795 19.5168 33.9966V33.9966Z" fill="white"/>
<svg viewBox="0 0 50 50" xmlns="http://www.w3.org/2000/svg">
<g clip-path="url(#clip0)">
<path fill-rule="evenodd" clip-rule="evenodd" d="M47.5253 2.74411C48.6515 4.23223 49.159 6.69899 49.4089 9.69785C49.7394 14.173 49.8722 19.5432 49.9991 25.0925C49.8348 30.7449 49.7679 36.4456 49.4089 40.4871C49.1256 43.5892 48.5236 45.6665 47.5184 46.9264C46.2397 48.1844 43.7866 49.2466 40.2888 49.4984C36.0347 49.8613 30.7861 49.8574 24.9956 50C18.5588 49.8898 14.1936 49.9371 9.61387 49.5004C6.04138 49.2525 3.70432 48.203 2.26628 46.9362C1.20102 45.5061 0.889219 43.9856 0.594135 40.4212C0.22528 36.305 0.14364 30.7272 0.00396729 25.1229C0.213477 19.5482 0.226264 13.9291 0.597086 9.72932C0.84594 6.41573 1.2384 4.18797 2.24464 2.77165C3.65612 1.56877 6.06401 0.970765 9.65616 0.675699C14.5742 0.100319 19.6949 -0.0127898 24.9887 -3.60417e-06C30.437 0.00884839 35.6668 0.16425 40.3331 0.62357C43.4806 0.87536 46.0853 1.4173 47.5203 2.74411H47.5253Z"/>
<path d="M24.3936 9.93882C20.8944 9.93993 17.5097 11.1858 14.845 13.4537C12.1802 15.7216 10.4093 18.8634 9.84899 22.3173C9.28865 25.7711 9.97544 29.3117 11.7865 32.3056C13.5976 35.2995 16.4148 37.5515 19.7342 38.6587C20.4709 38.7954 20.7414 38.339 20.7414 37.9495C20.7414 37.5984 20.7276 36.4368 20.7217 35.2054C16.6211 36.0975 15.7545 33.4674 15.7545 33.4674C15.0837 31.7639 14.1178 31.3115 14.1178 31.3115C12.7801 30.3968 14.2161 30.4155 14.2161 30.4155C15.6916 30.5197 16.4784 31.9341 16.4784 31.9341C17.7925 34.1864 19.926 33.5353 20.767 33.1586C20.8988 32.2065 21.2814 31.5564 21.7024 31.1915C18.4289 30.8187 14.9873 29.5549 14.9873 23.9132C14.9668 22.4485 15.5106 21.0321 16.506 19.9573C16.3525 19.5855 15.8489 18.0886 16.6486 16.0575C16.6486 16.0575 17.886 15.6641 20.7021 17.5683C23.1167 16.9076 25.6645 16.9076 28.0792 17.5683C30.9021 15.6562 32.1346 16.0497 32.1346 16.0497C32.9372 18.0797 32.4297 19.5787 32.2792 19.9495C33.275 21.0238 33.8183 22.4407 33.7959 23.9053C33.7959 29.5657 30.3484 30.8118 27.0661 31.1767C27.5943 31.6341 28.0654 32.5311 28.0654 33.9061C28.0654 35.8732 28.0487 37.4646 28.0487 37.9505C28.0487 38.3439 28.3143 38.8023 29.0608 38.6577C32.3809 37.5503 35.1985 35.2976 37.0095 32.3029C38.8205 29.3082 39.5068 25.7668 38.9454 22.3124C38.384 18.858 36.6117 15.7161 33.9456 13.4489C31.2794 11.1817 27.8935 9.93708 24.3936 9.93784V9.93882Z" fill="#09142e"/>
<path d="M15.2382 31.098C15.2057 31.1718 15.0906 31.1964 14.9854 31.1433C14.8801 31.0902 14.8182 30.9958 14.8536 30.922C14.889 30.8482 15.0001 30.8236 15.1074 30.8758C15.2146 30.9279 15.2756 31.0243 15.2382 31.098V31.098Z" fill="#09142e"/>
<path d="M15.8352 31.7629C15.7654 31.8278 15.6277 31.7973 15.5342 31.6951C15.4408 31.5928 15.4201 31.4551 15.4909 31.3892C15.5618 31.3233 15.6965 31.3547 15.7929 31.457C15.8893 31.5593 15.908 31.697 15.8352 31.7629Z" fill="#09142e"/>
<path d="M16.4165 32.6117C16.326 32.6747 16.1785 32.6117 16.087 32.4849C15.9955 32.358 15.9965 32.1967 16.087 32.1337C16.1775 32.0708 16.324 32.1278 16.4165 32.2577C16.5089 32.3875 16.507 32.5527 16.4165 32.6127V32.6117Z" fill="#09142e"/>
<path d="M17.2123 33.432C17.1316 33.5215 16.9595 33.4969 16.8336 33.376C16.7077 33.255 16.6693 33.0888 16.75 32.9993C16.8306 32.9097 17.0047 32.9353 17.1316 33.0553C17.2585 33.1753 17.2988 33.3435 17.2123 33.432Z" fill="#09142e"/>
<path d="M18.3119 33.9081C18.2765 34.0231 18.1152 34.0762 17.9441 34.0271C17.7729 33.9779 17.6686 33.8412 17.7021 33.7251C17.7355 33.6091 17.8988 33.554 18.0709 33.6071C18.2431 33.6602 18.3464 33.792 18.3119 33.909V33.9081Z" fill="#09142e"/>
<path d="M19.5168 33.9966C19.5168 34.1185 19.3791 34.2189 19.204 34.2208C19.029 34.2228 18.8853 34.1225 18.8834 34.0064C18.8814 33.8904 19.0221 33.7841 19.1981 33.7812C19.3742 33.7782 19.5168 33.8795 19.5168 33.9966V33.9966Z" fill="#09142e"/>
<path d="M20.6392 33.8048C20.6598 33.9228 20.5408 34.0448 20.3647 34.0772C20.1887 34.1097 20.0352 34.0349 20.0136 33.9179C19.9919 33.8009 20.1119 33.675 20.287 33.6435C20.4621 33.612 20.6175 33.6848 20.6392 33.8048V33.8048Z" fill="#09142e"/>
</g>
<defs>
<clipPath id="clip0">
<rect width="50" height="50" fill="#09142e"/>
</clipPath>
</defs>
</svg></g>
</symbol>
<symbol id="hashtag" viewBox="0 0 30 28">
<path d="M2.78294 13.0195C2.93451 12.6781 3.23613 12.4243 3.63244 12.3045L6.78236 11.3523L4.69561 7.60417C4.49955 7.25217 4.47487 6.85218 4.62843 6.50736C4.78072 6.16674 5.08234 5.91296 5.47865 5.79315C6.26153 5.55649 7.17491 5.91067 7.55881 6.60091L8.12577 7.61921C8.14181 7.6442 8.16218 7.66637 8.17661 7.69231L9.71938 10.4645L15.0216 8.86162L12.9348 5.11347C12.7388 4.76147 12.7141 4.36148 12.8677 4.01666C13.0199 3.67604 13.3216 3.42226 13.7179 3.30245C14.5008 3.06579 15.4141 3.41997 15.798 4.11021L16.3883 5.17043C16.395 5.18184 16.4046 5.19152 16.411 5.20307L17.9542 7.9751L21.3839 6.93829C22.1668 6.70163 23.0807 7.05567 23.4643 7.74503C23.6606 8.09791 23.6846 8.49716 23.531 8.84198C23.379 9.18348 23.0771 9.43638 22.6813 9.55605L19.3882 10.5515L21.6219 14.5638L25.0516 13.527C25.8345 13.2904 26.7484 13.6444 27.1323 14.3346C27.3281 14.6858 27.3527 15.0857 27.1994 15.4296C27.0474 15.7711 26.7453 16.025 26.349 16.1448L23.0559 17.1403L25.1539 20.9086C25.3499 21.2606 25.3746 21.6606 25.221 22.0054C25.0692 22.3459 24.7671 22.5998 24.3713 22.7194C23.5884 22.9561 22.6746 22.6021 22.2906 21.9118L20.127 18.0256L14.8215 19.6295L16.9194 23.3978C17.1155 23.7498 17.1402 24.1498 16.9866 24.4946C16.8343 24.8352 16.5327 25.089 16.1364 25.2088C15.3535 25.4455 14.4401 25.0913 14.0562 24.4011L11.8926 20.5149L8.59792 21.5109C7.81504 21.7475 6.9012 21.3935 6.51756 20.7041C6.31726 20.3448 6.29225 19.9554 6.44686 19.6074C6.59823 19.2671 6.90151 19.0138 7.30014 18.8932L10.4582 17.9386L8.22494 13.9262L4.93024 14.9221C4.14736 15.1588 3.23352 14.8048 2.84962 14.1145C2.6538 13.7634 2.62913 13.3634 2.78294 13.0195ZM18.6926 15.4493L16.4593 11.4369L11.1538 13.0408L13.3875 17.0531L18.6926 15.4493Z"/>

</symbol>
<symbol id="plus" viewBox="0 0 30 31">
<line y1="16" x2="30" y2="16" stroke-width="4"/>
<line x1="14.9997" y1="0.962982" x2="15.5549" y2="30.9578" stroke-width="4"/>

</symbol>
<symbol id="square" viewBox="0 0 242 257">
<path d="M121 0L242 128.5L121 257L0 128.5L121 0Z"/>
<path d="M121 14L233 129L121 244L9 129L121 14Z"/>

</symbol>
<symbol id="star" viewBox="0 0 20 21">
<path fill-rule="evenodd" clip-rule="evenodd" d="M10 15.773L16.18 19.5L14.545 12.471L20 7.744L12.809 7.127L10 0.5L7.191 7.127L0 7.744L5.455 12.471L3.82 19.5L10 15.773Z"/>

</symbol>
<symbol id="twitter" viewBox="0 0 32 32">
<path d="M31.993 6.077C30.816 6.6 29.552 6.953 28.223 7.11C29.578 6.298 30.619 5.012 31.11 3.48C29.841 4.231 28.437 4.779 26.942 5.072C25.744 3.797 24.038 3 22.149 3C18.524 3 15.587 5.938 15.587 9.563C15.587 10.077 15.644 10.579 15.756 11.059C10.301 10.785 5.46498 8.172 2.22698 4.201C1.66298 5.171 1.33898 6.298 1.33898 7.501C1.33898 9.779 2.49798 11.787 4.25798 12.965C3.18298 12.93 2.17098 12.636 1.28598 12.144C1.28498 12.171 1.28498 12.2 1.28498 12.226C1.28498 15.407 3.54698 18.06 6.54998 18.663C5.99998 18.812 5.41998 18.893 4.82098 18.893C4.39698 18.893 3.98698 18.852 3.58698 18.776C4.42098 21.382 6.84598 23.28 9.71698 23.334C7.47198 25.094 4.64198 26.145 1.56698 26.145C1.03698 26.145 0.513977 26.114 0.000976562 26.053C2.90498 27.913 6.35498 29 10.062 29C22.134 29 28.737 18.999 28.737 10.325C28.737 10.041 28.729 9.757 28.717 9.475C30 8.55 31.112 7.395 31.993 6.077Z"/>

</symbol>
<symbol id="x" viewBox="0 0 29 27">
<line x1="26.7043" y1="3.1625" x2="5.07933" y2="23.9558" stroke-width="6"/>
<path d="M3 3L24.625 23.7933" stroke-width="6"/>

</symbol></svg>