<?xml version="1.0" encoding="utf-8"?>
<svg xmlns="http://www.w3.org/2000/svg">
<symbol id="check" viewBox="0 0 50 50">
<path d="M45.293 19.562L45.992 12.879L39.853 10.148L37.123 4.00901L30.44 4.70701L25 0.765015L19.561 4.70701L12.879 4.00901L10.148 10.147L4.009 12.879L4.707 19.561L0.764999 25L4.707 30.438L4.008 37.121L10.147 39.852L12.877 45.991L19.56 45.293L25 49.235L30.439 45.293L37.121 45.991L39.852 39.853L45.991 37.121L45.293 30.439L49.235 25L45.293 19.562ZM43.851 35.885L38.337 38.338L35.884 43.851L29.885 43.225L25 46.765L20.115 43.225L14.115 43.851L11.662 38.337L6.149 35.885L6.775 29.886L3.235 25L6.776 20.115L6.15 14.115L11.664 11.662L14.117 6.14901L20.116 6.77501L25 3.23501L29.885 6.77501L35.885 6.14901L38.338 11.663L43.851 14.115L43.225 20.114L46.765 25L43.224 29.885L43.851 35.885Z"/>
<path d="M21 31.586L14.707 25.293L13.293 26.707L21 34.414L38.707 16.707L37.293 15.293L21 31.586Z"/>

</symbol>
<symbol id="circle" viewBox="0 0 50 50">
<circle cx="25" cy="25" r="25"/>
<circle cx="25" cy="25" r="10"/>

</symbol>
<symbol id="facebook" viewBox="0 0 19 32">
<path d="M12 32V18H18L19 12H12V9C12 7 13.002 6 15 6H18V0C17 0 14.76 0 13 0C8 0 6 3 6 8V12H0V18H6V32H12Z"/>

</symbol>
<symbol id="github" viewBox="0 0 72 72">
<path fill-rule="evenodd" clip-rule="evenodd" d="M8 72H64C68.4183 72 72 68.4183 72 64V8C72 3.58172 68.4183 0 64 0H8C3.58172 0 0 3.58172 0 8V64C0 68.4183 3.58172 72 8 72Z"/>
<path fill-rule="evenodd" clip-rule="evenodd" d="M35.9985 12C22.746 12 12 22.7871 12 36.0966C12 46.7407 18.876 55.7718 28.4145 58.9584C29.6145 59.1798 30.0525 58.4359 30.0525 57.7973C30.0525 57.2251 30.0315 55.7101 30.0195 53.6996C23.343 55.1559 21.9345 50.4694 21.9345 50.4694C20.844 47.6864 19.2705 46.9455 19.2705 46.9455C17.091 45.4501 19.4355 45.4802 19.4355 45.4802C21.843 45.6504 23.1105 47.9635 23.1105 47.9635C25.2525 51.6455 28.728 50.5823 30.096 49.9649C30.3135 48.4078 30.9345 47.3461 31.62 46.7437C26.2905 46.1353 20.688 44.0691 20.688 34.8362C20.688 32.2053 21.6225 30.0548 23.1585 28.3696C22.911 27.7597 22.0875 25.3111 23.3925 21.9935C23.3925 21.9935 25.4085 21.3459 29.9925 24.4632C31.908 23.9286 33.96 23.662 36.0015 23.6515C38.04 23.662 40.0935 23.9286 42.0105 24.4632C46.5915 21.3459 48.603 21.9935 48.603 21.9935C49.9125 25.3111 49.089 27.7597 48.8415 28.3696C50.3805 30.0548 51.309 32.2053 51.309 34.8362C51.309 44.0917 45.6975 46.1293 40.3515 46.7256C41.2125 47.4696 41.9805 48.9394 41.9805 51.1877C41.9805 54.4089 41.9505 57.0067 41.9505 57.7973C41.9505 58.4419 42.3825 59.1918 43.6005 58.9554C53.13 55.7628 60 46.7377 60 36.0966C60 22.7871 49.254 12 35.9985 12Z"/>

</symbol>
<symbol id="hashtag" viewBox="0 0 30 28">
<path d="M2.78294 13.0195C2.93451 12.6781 3.23613 12.4243 3.63244 12.3045L6.78236 11.3523L4.69561 7.60417C4.49955 7.25217 4.47487 6.85218 4.62843 6.50736C4.78072 6.16674 5.08234 5.91296 5.47865 5.79315C6.26153 5.55649 7.17491 5.91067 7.55881 6.60091L8.12577 7.61921C8.14181 7.6442 8.16218 7.66637 8.17661 7.69231L9.71938 10.4645L15.0216 8.86162L12.9348 5.11347C12.7388 4.76147 12.7141 4.36148 12.8677 4.01666C13.0199 3.67604 13.3216 3.42226 13.7179 3.30245C14.5008 3.06579 15.4141 3.41997 15.798 4.11021L16.3883 5.17043C16.395 5.18184 16.4046 5.19152 16.411 5.20307L17.9542 7.9751L21.3839 6.93829C22.1668 6.70163 23.0807 7.05567 23.4643 7.74503C23.6606 8.09791 23.6846 8.49716 23.531 8.84198C23.379 9.18348 23.0771 9.43638 22.6813 9.55605L19.3882 10.5515L21.6219 14.5638L25.0516 13.527C25.8345 13.2904 26.7484 13.6444 27.1323 14.3346C27.3281 14.6858 27.3527 15.0857 27.1994 15.4296C27.0474 15.7711 26.7453 16.025 26.349 16.1448L23.0559 17.1403L25.1539 20.9086C25.3499 21.2606 25.3746 21.6606 25.221 22.0054C25.0692 22.3459 24.7671 22.5998 24.3713 22.7194C23.5884 22.9561 22.6746 22.6021 22.2906 21.9118L20.127 18.0256L14.8215 19.6295L16.9194 23.3978C17.1155 23.7498 17.1402 24.1498 16.9866 24.4946C16.8343 24.8352 16.5327 25.089 16.1364 25.2088C15.3535 25.4455 14.4401 25.0913 14.0562 24.4011L11.8926 20.5149L8.59792 21.5109C7.81504 21.7475 6.9012 21.3935 6.51756 20.7041C6.31726 20.3448 6.29225 19.9554 6.44686 19.6074C6.59823 19.2671 6.90151 19.0138 7.30014 18.8932L10.4582 17.9386L8.22494 13.9262L4.93024 14.9221C4.14736 15.1588 3.23352 14.8048 2.84962 14.1145C2.6538 13.7634 2.62913 13.3634 2.78294 13.0195ZM18.6926 15.4493L16.4593 11.4369L11.1538 13.0408L13.3875 17.0531L18.6926 15.4493Z"/>

</symbol>
<symbol id="plus" viewBox="0 0 30 31">
<line y1="16" x2="30" y2="16" stroke-width="4"/>
<line x1="14.9997" y1="0.962982" x2="15.5549" y2="30.9578" stroke-width="4"/>

</symbol>
<symbol id="square" viewBox="0 0 242 257">
<path d="M121 0L242 128.5L121 257L0 128.5L121 0Z"/>
<path d="M121 14L233 129L121 244L9 129L121 14Z"/>

</symbol>
<symbol id="star" viewBox="0 0 20 21">
<path fill-rule="evenodd" clip-rule="evenodd" d="M10 15.773L16.18 19.5L14.545 12.471L20 7.744L12.809 7.127L10 0.5L7.191 7.127L0 7.744L5.455 12.471L3.82 19.5L10 15.773Z"/>

</symbol>
<symbol id="twitter" viewBox="0 0 32 32">
<path d="M31.993 6.077C30.816 6.6 29.552 6.953 28.223 7.11C29.578 6.298 30.619 5.012 31.11 3.48C29.841 4.231 28.437 4.779 26.942 5.072C25.744 3.797 24.038 3 22.149 3C18.524 3 15.587 5.938 15.587 9.563C15.587 10.077 15.644 10.579 15.756 11.059C10.301 10.785 5.46498 8.172 2.22698 4.201C1.66298 5.171 1.33898 6.298 1.33898 7.501C1.33898 9.779 2.49798 11.787 4.25798 12.965C3.18298 12.93 2.17098 12.636 1.28598 12.144C1.28498 12.171 1.28498 12.2 1.28498 12.226C1.28498 15.407 3.54698 18.06 6.54998 18.663C5.99998 18.812 5.41998 18.893 4.82098 18.893C4.39698 18.893 3.98698 18.852 3.58698 18.776C4.42098 21.382 6.84598 23.28 9.71698 23.334C7.47198 25.094 4.64198 26.145 1.56698 26.145C1.03698 26.145 0.513977 26.114 0.000976562 26.053C2.90498 27.913 6.35498 29 10.062 29C22.134 29 28.737 18.999 28.737 10.325C28.737 10.041 28.729 9.757 28.717 9.475C30 8.55 31.112 7.395 31.993 6.077Z"/>

</symbol>
<symbol id="x" viewBox="0 0 29 27">
<line x1="26.7043" y1="3.1625" x2="5.07933" y2="23.9558" stroke-width="6"/>
<path d="M3 3L24.625 23.7933" stroke-width="6"/>

</symbol></svg>