<svg width="50" height="50" viewBox="0 0 50 50" fill="none" xmlns="http://www.w3.org/2000/svg">
<g clip-path="url(#clip0)">
<path fill-rule="evenodd" clip-rule="evenodd" d="M47.5253 2.74411C48.6515 4.23223 49.159 6.69899 49.4089 9.69785C49.7394 14.173 49.8722 19.5432 49.9991 25.0925C49.8348 30.7449 49.7679 36.4456 49.4089 40.4871C49.1256 43.5892 48.5236 45.6665 47.5184 46.9264C46.2397 48.1844 43.7866 49.2466 40.2888 49.4984C36.0347 49.8613 30.7861 49.8574 24.9956 50C18.5588 49.8898 14.1936 49.9371 9.61387 49.5004C6.04138 49.2525 3.70432 48.203 2.26628 46.9362C1.20102 45.5061 0.889219 43.9856 0.594135 40.4212C0.22528 36.305 0.14364 30.7272 0.00396729 25.1229C0.213477 19.5482 0.226264 13.9291 0.597086 9.72932C0.84594 6.41573 1.2384 4.18797 2.24464 2.77165C3.65612 1.56877 6.06401 0.970765 9.65616 0.675699C14.5742 0.100319 19.6949 -0.0127898 24.9887 -3.60417e-06C30.437 0.00884839 35.6668 0.16425 40.3331 0.62357C43.4806 0.87536 46.0853 1.4173 47.5203 2.74411H47.5253Z" fill="#24292E"/>
<path d="M24.3936 9.93882C20.8944 9.93993 17.5097 11.1858 14.845 13.4537C12.1802 15.7216 10.4093 18.8634 9.84899 22.3173C9.28865 25.7711 9.97544 29.3117 11.7865 32.3056C13.5976 35.2995 16.4148 37.5515 19.7342 38.6587C20.4709 38.7954 20.7414 38.339 20.7414 37.9495C20.7414 37.5984 20.7276 36.4368 20.7217 35.2054C16.6211 36.0975 15.7545 33.4674 15.7545 33.4674C15.0837 31.7639 14.1178 31.3115 14.1178 31.3115C12.7801 30.3968 14.2161 30.4155 14.2161 30.4155C15.6916 30.5197 16.4784 31.9341 16.4784 31.9341C17.7925 34.1864 19.926 33.5353 20.767 33.1586C20.8988 32.2065 21.2814 31.5564 21.7024 31.1915C18.4289 30.8187 14.9873 29.5549 14.9873 23.9132C14.9668 22.4485 15.5106 21.0321 16.506 19.9573C16.3525 19.5855 15.8489 18.0886 16.6486 16.0575C16.6486 16.0575 17.886 15.6641 20.7021 17.5683C23.1167 16.9076 25.6645 16.9076 28.0792 17.5683C30.9021 15.6562 32.1346 16.0497 32.1346 16.0497C32.9372 18.0797 32.4297 19.5787 32.2792 19.9495C33.275 21.0238 33.8183 22.4407 33.7959 23.9053C33.7959 29.5657 30.3484 30.8118 27.0661 31.1767C27.5943 31.6341 28.0654 32.5311 28.0654 33.9061C28.0654 35.8732 28.0487 37.4646 28.0487 37.9505C28.0487 38.3439 28.3143 38.8023 29.0608 38.6577C32.3809 37.5503 35.1985 35.2976 37.0095 32.3029C38.8205 29.3082 39.5068 25.7668 38.9454 22.3124C38.384 18.858 36.6117 15.7161 33.9456 13.4489C31.2794 11.1817 27.8935 9.93708 24.3936 9.93784V9.93882Z" fill="white"/>
<path d="M15.2382 31.098C15.2057 31.1718 15.0906 31.1964 14.9854 31.1433C14.8801 31.0902 14.8182 30.9958 14.8536 30.922C14.889 30.8482 15.0001 30.8236 15.1074 30.8758C15.2146 30.9279 15.2756 31.0243 15.2382 31.098V31.098Z" fill="white"/>
<path d="M15.8352 31.7629C15.7654 31.8278 15.6277 31.7973 15.5342 31.6951C15.4408 31.5928 15.4201 31.4551 15.4909 31.3892C15.5618 31.3233 15.6965 31.3547 15.7929 31.457C15.8893 31.5593 15.908 31.697 15.8352 31.7629Z" fill="white"/>
<path d="M16.4165 32.6117C16.326 32.6747 16.1785 32.6117 16.087 32.4849C15.9955 32.358 15.9965 32.1967 16.087 32.1337C16.1775 32.0708 16.324 32.1278 16.4165 32.2577C16.5089 32.3875 16.507 32.5527 16.4165 32.6127V32.6117Z" fill="white"/>
<path d="M17.2123 33.432C17.1316 33.5215 16.9595 33.4969 16.8336 33.376C16.7077 33.255 16.6693 33.0888 16.75 32.9993C16.8306 32.9097 17.0047 32.9353 17.1316 33.0553C17.2585 33.1753 17.2988 33.3435 17.2123 33.432Z" fill="white"/>
<path d="M18.3119 33.9081C18.2765 34.0231 18.1152 34.0762 17.9441 34.0271C17.7729 33.9779 17.6686 33.8412 17.7021 33.7251C17.7355 33.6091 17.8988 33.554 18.0709 33.6071C18.2431 33.6602 18.3464 33.792 18.3119 33.909V33.9081Z" fill="white"/>
<path d="M19.5168 33.9966C19.5168 34.1185 19.3791 34.2189 19.204 34.2208C19.029 34.2228 18.8853 34.1225 18.8834 34.0064C18.8814 33.8904 19.0221 33.7841 19.1981 33.7812C19.3742 33.7782 19.5168 33.8795 19.5168 33.9966V33.9966Z" fill="white"/>
<svg viewBox="0 0 50 50" xmlns="http://www.w3.org/2000/svg">
<g clip-path="url(#clip0)">
<path fill-rule="evenodd" clip-rule="evenodd" d="M47.5253 2.74411C48.6515 4.23223 49.159 6.69899 49.4089 9.69785C49.7394 14.173 49.8722 19.5432 49.9991 25.0925C49.8348 30.7449 49.7679 36.4456 49.4089 40.4871C49.1256 43.5892 48.5236 45.6665 47.5184 46.9264C46.2397 48.1844 43.7866 49.2466 40.2888 49.4984C36.0347 49.8613 30.7861 49.8574 24.9956 50C18.5588 49.8898 14.1936 49.9371 9.61387 49.5004C6.04138 49.2525 3.70432 48.203 2.26628 46.9362C1.20102 45.5061 0.889219 43.9856 0.594135 40.4212C0.22528 36.305 0.14364 30.7272 0.00396729 25.1229C0.213477 19.5482 0.226264 13.9291 0.597086 9.72932C0.84594 6.41573 1.2384 4.18797 2.24464 2.77165C3.65612 1.56877 6.06401 0.970765 9.65616 0.675699C14.5742 0.100319 19.6949 -0.0127898 24.9887 -3.60417e-06C30.437 0.00884839 35.6668 0.16425 40.3331 0.62357C43.4806 0.87536 46.0853 1.4173 47.5203 2.74411H47.5253Z"/>
<path d="M24.3936 9.93882C20.8944 9.93993 17.5097 11.1858 14.845 13.4537C12.1802 15.7216 10.4093 18.8634 9.84899 22.3173C9.28865 25.7711 9.97544 29.3117 11.7865 32.3056C13.5976 35.2995 16.4148 37.5515 19.7342 38.6587C20.4709 38.7954 20.7414 38.339 20.7414 37.9495C20.7414 37.5984 20.7276 36.4368 20.7217 35.2054C16.6211 36.0975 15.7545 33.4674 15.7545 33.4674C15.0837 31.7639 14.1178 31.3115 14.1178 31.3115C12.7801 30.3968 14.2161 30.4155 14.2161 30.4155C15.6916 30.5197 16.4784 31.9341 16.4784 31.9341C17.7925 34.1864 19.926 33.5353 20.767 33.1586C20.8988 32.2065 21.2814 31.5564 21.7024 31.1915C18.4289 30.8187 14.9873 29.5549 14.9873 23.9132C14.9668 22.4485 15.5106 21.0321 16.506 19.9573C16.3525 19.5855 15.8489 18.0886 16.6486 16.0575C16.6486 16.0575 17.886 15.6641 20.7021 17.5683C23.1167 16.9076 25.6645 16.9076 28.0792 17.5683C30.9021 15.6562 32.1346 16.0497 32.1346 16.0497C32.9372 18.0797 32.4297 19.5787 32.2792 19.9495C33.275 21.0238 33.8183 22.4407 33.7959 23.9053C33.7959 29.5657 30.3484 30.8118 27.0661 31.1767C27.5943 31.6341 28.0654 32.5311 28.0654 33.9061C28.0654 35.8732 28.0487 37.4646 28.0487 37.9505C28.0487 38.3439 28.3143 38.8023 29.0608 38.6577C32.3809 37.5503 35.1985 35.2976 37.0095 32.3029C38.8205 29.3082 39.5068 25.7668 38.9454 22.3124C38.384 18.858 36.6117 15.7161 33.9456 13.4489C31.2794 11.1817 27.8935 9.93708 24.3936 9.93784V9.93882Z" fill="#09142e"/>
<path d="M15.2382 31.098C15.2057 31.1718 15.0906 31.1964 14.9854 31.1433C14.8801 31.0902 14.8182 30.9958 14.8536 30.922C14.889 30.8482 15.0001 30.8236 15.1074 30.8758C15.2146 30.9279 15.2756 31.0243 15.2382 31.098V31.098Z" fill="#09142e"/>
<path d="M15.8352 31.7629C15.7654 31.8278 15.6277 31.7973 15.5342 31.6951C15.4408 31.5928 15.4201 31.4551 15.4909 31.3892C15.5618 31.3233 15.6965 31.3547 15.7929 31.457C15.8893 31.5593 15.908 31.697 15.8352 31.7629Z" fill="#09142e"/>
<path d="M16.4165 32.6117C16.326 32.6747 16.1785 32.6117 16.087 32.4849C15.9955 32.358 15.9965 32.1967 16.087 32.1337C16.1775 32.0708 16.324 32.1278 16.4165 32.2577C16.5089 32.3875 16.507 32.5527 16.4165 32.6127V32.6117Z" fill="#09142e"/>
<path d="M17.2123 33.432C17.1316 33.5215 16.9595 33.4969 16.8336 33.376C16.7077 33.255 16.6693 33.0888 16.75 32.9993C16.8306 32.9097 17.0047 32.9353 17.1316 33.0553C17.2585 33.1753 17.2988 33.3435 17.2123 33.432Z" fill="#09142e"/>
<path d="M18.3119 33.9081C18.2765 34.0231 18.1152 34.0762 17.9441 34.0271C17.7729 33.9779 17.6686 33.8412 17.7021 33.7251C17.7355 33.6091 17.8988 33.554 18.0709 33.6071C18.2431 33.6602 18.3464 33.792 18.3119 33.909V33.9081Z" fill="#09142e"/>
<path d="M19.5168 33.9966C19.5168 34.1185 19.3791 34.2189 19.204 34.2208C19.029 34.2228 18.8853 34.1225 18.8834 34.0064C18.8814 33.8904 19.0221 33.7841 19.1981 33.7812C19.3742 33.7782 19.5168 33.8795 19.5168 33.9966V33.9966Z" fill="#09142e"/>
<path d="M20.6392 33.8048C20.6598 33.9228 20.5408 34.0448 20.3647 34.0772C20.1887 34.1097 20.0352 34.0349 20.0136 33.9179C19.9919 33.8009 20.1119 33.675 20.287 33.6435C20.4621 33.612 20.6175 33.6848 20.6392 33.8048V33.8048Z" fill="#09142e"/>
</g>
<defs>
<clipPath id="clip0">
<rect width="50" height="50" fill="#09142e"/>
</clipPath>
</defs>
</svg>